<svg width="48" height="48" viewBox="0 0 48 48" fill="none" xmlns="http://www.w3.org/2000/svg">
<path d="M24 0C30.3652 0 36.4697 2.52856 40.9706 7.02944C45.4714 11.5303 48 17.6348 48 24C48 30.3652 45.4714 36.4697 40.9706 40.9706C36.4697 45.4714 30.3652 48 24 48C17.6348 48 11.5303 45.4714 7.02944 40.9706C2.52856 36.4697 0 30.3652 0 24C0 17.6348 2.52856 11.5303 7.02944 7.02944C11.5303 2.52856 17.6348 0 24 0ZM24 3C18.7394 2.99595 13.6688 4.9665 9.7914 8.5218C5.91401 12.0771 3.51222 16.9582 3.06118 22.1995C2.61014 27.4408 4.1427 32.6604 7.35567 36.8259C10.5687 40.9914 15.228 43.7992 20.412 44.694V30.516H14.475V24.18H20.415V19.956C20.415 12.972 23.799 9.906 29.577 9.906C32.343 9.906 33.807 10.11 34.497 10.206V15.738H30.558C28.104 15.738 27.249 18.078 27.249 20.709V24.18H34.437L33.459 30.519H27.249V44.754C32.4675 43.9285 37.1832 41.1669 40.4564 37.0196C43.7295 32.8722 45.3196 27.6438 44.9097 22.3764C44.4998 17.1089 42.1201 12.1894 38.2448 8.5983C34.3695 5.0072 29.2833 3.0083 24 3Z" fill="white"/>
</svg>
