<svg width="48" height="48" viewBox="0 0 48 48" fill="none" xmlns="http://www.w3.org/2000/svg">
<path d="M18.2466 12.6679C18.2462 13.3751 17.9695 14.0532 17.4773 14.553C16.9851 15.0528 16.3177 15.3334 15.622 15.333C14.9262 15.3327 14.2591 15.0514 13.7674 14.5511C13.2757 14.0508 12.9997 13.3724 13 12.6652C13.0003 11.958 13.2771 11.2799 13.7693 10.7801C14.2615 10.2802 14.9289 9.99965 15.6246 10C16.3203 10.0004 16.9875 10.2816 17.4792 10.7819C17.9709 11.2823 18.2469 11.9606 18.2466 12.6679ZM18.3253 17.3076H13.0787V34H18.3253V17.3076ZM26.6149 17.3076H21.3945V34H26.5624V25.2405C26.5624 20.3608 32.819 19.9075 32.819 25.2405V34H38V23.4273C38 15.201 28.7398 15.5077 26.5624 19.5475L26.6149 17.3076Z" fill="white"/>
<circle cx="24" cy="24" r="22.5" stroke="white" stroke-width="3"/>
</svg>
