<svg width="48" height="48" viewBox="0 0 48 48" fill="none" xmlns="http://www.w3.org/2000/svg">
<path d="M18.0675 32.1175L18.9725 32.6462C20.4986 33.5365 22.2345 34.0038 24.0013 34C25.9791 34 27.9125 33.4135 29.557 32.3147C31.2014 31.2159 32.4832 29.6541 33.24 27.8268C33.9969 25.9996 34.195 23.9889 33.8091 22.0491C33.4233 20.1093 32.4708 18.3275 31.0723 16.9289C29.6738 15.5304 27.892 14.578 25.9522 14.1921C24.0123 13.8063 22.0017 14.0043 20.1744 14.7612C18.3472 15.5181 16.7854 16.7998 15.6866 18.4443C14.5877 20.0888 14.0013 22.0222 14.0013 24C13.9976 25.7673 14.4653 27.5037 15.3563 29.03L15.8838 29.935L15.0675 32.9363L18.0675 32.1175ZM11.5063 36.5L13.1963 30.29C12.0824 28.3812 11.4974 26.21 11.5013 24C11.5013 17.0963 17.0975 11.5 24.0013 11.5C30.905 11.5 36.5013 17.0963 36.5013 24C36.5013 30.9037 30.905 36.5 24.0013 36.5C21.7922 36.5038 19.622 35.9192 17.7138 34.8063L11.5063 36.5ZM19.49 18.135C19.6583 18.1233 19.8263 18.1217 19.9938 18.13C20.0613 18.135 20.1288 18.1417 20.1963 18.15C20.395 18.1725 20.6138 18.2937 20.6875 18.4612C21.06 19.3071 21.4217 20.1571 21.7725 21.0113C21.85 21.2013 21.8038 21.445 21.6563 21.6825C21.5813 21.8038 21.4638 21.9737 21.3275 22.1475C21.1863 22.3287 20.8825 22.6613 20.8825 22.6613C20.8825 22.6613 20.7588 22.8088 20.8063 22.9925C20.8238 23.0625 20.8813 23.1638 20.9338 23.2488L21.0075 23.3675C21.3275 23.9013 21.7575 24.4425 22.2825 24.9525C22.4325 25.0975 22.5788 25.2463 22.7363 25.385C23.3213 25.9012 23.9838 26.3225 24.6988 26.635L24.705 26.6375C24.8113 26.6837 24.865 26.7088 25.02 26.775C25.0975 26.8075 25.1771 26.835 25.2588 26.8575C25.2888 26.8658 25.3192 26.8704 25.35 26.8713C25.4213 26.874 25.4921 26.8592 25.5564 26.8283C25.6207 26.7973 25.6764 26.7512 25.7188 26.6937C26.6225 25.5988 26.7063 25.5275 26.7125 25.5275V25.53C26.7753 25.4712 26.85 25.4266 26.9315 25.3992C27.013 25.3718 27.0995 25.3623 27.185 25.3713C27.2617 25.3746 27.3354 25.3912 27.4063 25.4213C28.07 25.725 29.1563 26.1987 29.1563 26.1987L29.8838 26.525C30.0063 26.5838 30.1175 26.7225 30.1213 26.8562C30.1263 26.94 30.1338 27.075 30.105 27.3225C30.065 27.6462 29.9675 28.035 29.87 28.2388C29.8024 28.3773 29.7139 28.5047 29.6075 28.6162C29.4813 28.7486 29.3432 28.8691 29.195 28.9762C29.0917 29.0529 29.0396 29.0904 29.0388 29.0887C28.8833 29.1874 28.7236 29.2792 28.56 29.3638C28.238 29.5343 27.8826 29.6324 27.5188 29.6512C27.2875 29.6637 27.0563 29.6812 26.8238 29.6688C26.8138 29.6688 26.1138 29.56 26.1138 29.56C24.3366 29.0925 22.693 28.2168 21.3138 27.0025C21.0313 26.7538 20.7688 26.4862 20.5013 26.22C19.3913 25.1138 18.55 23.92 18.0388 22.7925C17.7794 22.239 17.6389 21.6374 17.6263 21.0263C17.6216 20.2672 17.8701 19.5282 18.3325 18.9262C18.4238 18.8088 18.51 18.6863 18.6588 18.545C18.8163 18.395 18.9175 18.315 19.0263 18.26C19.1713 18.1887 19.3288 18.1463 19.49 18.135Z" fill="white"/>
<circle cx="24" cy="24" r="22.5" stroke="white" stroke-width="3"/>
</svg>
